<?xml version="1.0" encoding="utf-8"?>
<!-- Generator: Adobe Illustrator 26.0.1, SVG Export Plug-In . SVG Version: 6.00 Build 0)  -->
<svg version="1.1" id="Слой_1" xmlns="http://www.w3.org/2000/svg" xmlns:xlink="http://www.w3.org/1999/xlink" x="0px" y="0px"
	 viewBox="0 0 600 304.55" style="enable-background:new 0 0 600 304.55;" xml:space="preserve">
<style type="text/css">
	.st0{fill:#222222;}
	.st1{fill:#333333;}
	.st2{fill:#EEEEEE;}
	.st3{fill:#315B31;}
	.st4{fill:#3B6D3B;}
	.st5{fill:#A1E2A1;}
	.st6{fill:#D6AD00;}
	.st7{fill:#EFC100;}
	.st8{fill:#FFE67D;}
	.st9{font-family:'SegoeUI';}
	.st10{font-size:27.0814px;}
</style>
<g>
	<rect x="86.11" y="184.34" class="st0" width="142.59" height="64.12"/>
</g>
<g>
	<rect x="86.11" y="120.22" class="st1" width="142.59" height="64.12"/>
</g>
<g>
	<rect x="86.11" y="56.1" class="st2" width="142.59" height="64.12"/>
</g>
<g>
	<rect x="228.7" y="184.34" class="st3" width="142.59" height="64.12"/>
</g>
<g>
	<rect x="228.7" y="120.22" class="st4" width="142.59" height="64.12"/>
</g>
<g>
	<rect x="228.7" y="56.1" class="st5" width="142.59" height="64.12"/>
</g>
<g>
	<rect x="371.3" y="184.34" class="st6" width="142.59" height="64.12"/>
</g>
<g>
	<rect x="371.3" y="120.22" class="st7" width="142.59" height="64.12"/>
</g>
<g>
	<rect x="371.3" y="56.1" class="st8" width="142.59" height="64.12"/>
</g>
<text transform="matrix(1 0 0 1 113.6139 160.5523)" class="st2 st9 st10">333333</text>
<text transform="matrix(1 0 0 1 254.2086 160.5533)" class="st2 st9 st10">3b6d3b</text>
<text transform="matrix(1 0 0 1 403.1203 160.5533)" class="st1 st9 st10">efc100</text>
<text transform="matrix(1 0 0 1 114.923 97.5543)" class="st1 st9 st10">eeeeee</text>
<text transform="matrix(1 0 0 1 257.2423 97.5553)" class="st1 st9 st10">a1e2a1</text>
<text transform="matrix(1 0 0 1 404.4621 97.5553)" class="st1 st9 st10">ffe67d</text>
<text transform="matrix(1 0 0 1 113.6149 225.4713)" class="st2 st9 st10">222222</text>
<text transform="matrix(1 0 0 1 255.5441 225.4713)" class="st2 st9 st10">315b31</text>
<text transform="matrix(1 0 0 1 397.8576 225.4713)" class="st2 st9 st10">d6ad00</text>
</svg>
